<?xml version="1.0" encoding="UTF-8"?>
<svg id="Layer_2" data-name="Layer 2" xmlns="http://www.w3.org/2000/svg" viewBox="0 0 600 341.91">
  <path d="M395.08,291.96l-2.3-7.55c-11.87-8.56-4.69,11.9-17.61,11.69,1.32,4.97.75,4.27-3.52,7.32l5.68,5.51c-3.78-1.36-8.09,1.68-10.26,1.82-1.51.1-2.35-1.54-3.97-1.36-4.17.47-17.81,5.29-18.69,9.17.26,3.22,5.86,7.25,4.01,10.34s-6.88,1.18-9.64,2.91c-3.03,1.9-1.38,8.29-7.03,9.09-8.4,1.19-14.04-3.02-19.41-7.48,5.46-7.01,9.68-12.57,5.91-21.04-5.15-11.58-10.6,2.02-7.15,8.53-1.53-2.66-7.88-2.76-8.21-3.04-.51-.43,1-10.27-6-9.51-3.79,3.29-5.5,7.39-4.64,11.99.59,3.13,8.56,10.63,8.08,12.91-.08.36-4.29,5.88-4.62,6.11-.72.51-6.71,2.15-7.96,2.31-12.79,1.55-7.44-5.71-12.62-8.85-2.37-1.43-7.18-1.28-10.09-1.97-1.31-3.54,3.32-6.66,3.52-9.54.58-8.29-20.4-7.97-24.34-10.32-.59-.35-8.11-8.55-8.85-9.52-.3-.39-3.66-5.47-3.82-5.79-1.58-3.15-2.46-9.55-4.31-11.3-2.86-2.69-7.5-.57-9.63-1.86-1.54-.93-.55-3.5-1.34-4.36-.65-.71-18.02-6.44-19.76-6.78-3.82-.74-7.94.14-11.08-.63s-6.61-6.85-9.7-6.83l-20.09,9.07-2.49-.95c-1.45-1.13-1.14-3.16-2.47-4.15s-16.36-4.39-18.98-4.69c-5.68-.65-18.37,2.64-21.58,1.33s-2.12-5.34-2.38-5.57c-.43-.38-3.21.87-4.76.44-3.9-1.1-4.49-4.81-5.45-5.48-5.94-4.13-7.47-4.79-10.48-11.92-.87-2.06-3.14-7.96.54-7.04l.04-1.94c-.91.06-1.76,0-2.27-.76-3.2-4.76,1.16-4.35,1.17-4.81.03-.92-1.56-2.12-1.05-3.25.18-.39,7.24-4.8,7.88-5.07,3.27-1.34,25.21-3.82,25.01-5.62-5.2-3.51-9.68-7.7-16.06-9.47l.19-4.05-1.41-.85c-9.01,1.41-40.23,2.44-28.87-11.4.39-.47,6.11-6.45,6.49-6.76,2.82-2.34,9.34-1.15,7.73-6.4-1.21-3.92-16.97,3.53-20.56,3.41-9.83-.35-18.69-8.89-13.55-17.3,1.29-2.11,5-3.11,4.58-5.61-7.4.08-7.59-6.55-9.76-8.75-.71-.72-3.5-1.07-5.03-2.24-6.84-5.21-11.26-8.13-4.13-15.49-5.74-3.14-11.95-4.53-17.13-8.51-2.11-1.62-3.29-4.02-5.95-5.96-5.26-3.84-21.68-7.92-11.85-16.05,7.19-5.95,26.51,3.64,35.57,4.06,7.77.36,19.16-2.18,27.15-1.51,2.36.2,19.19,4.31,21.54,5.27,12.97,5.33,4.97,18.54,4.01,26.79-.84,7.16.1,15.91,6.93,20.91,10.2,7.46,14.37-.67,24.38-1.53,2.78-.24,19.45,1.37,22.04,2.27,3.46,1.2,6.72,5.39,11.55,4.72-1.15-5.05,3.57-16.35-1.22-20.45-1.38-1.18-4.51-1.59-6.28-2.68-7.17-4.44-20.69-13.13-29.69-12.85-5.43.17-13.66,3.9-18.79,1.11-1.45-.79-5.09-13.67-5.2-15.83-.18-3.37,1.55-6.63.8-10.67-.59-3.15-4.33-6.13-4.31-8.85s2.61-5.66,3.14-8.25c.87-4.3.22-8.62,2.06-13.24s8.24-8.85,8.39-11.92c.16-3.29-3.16-5.75-3.13-8.74,0-.55,1.97-9.97,2.22-10.81.31-1.04,4,0,1.17-3.66l4.72.99c-.72-6.93,3.38-4.53,5.66-5.33,5.08-1.77,10.19-4.45,17.25-3.7.96.1.34,2.9,3.69,2.07,1.19-3.68,4.32-2.32,6.22-3.3,1.71-.88,1.22-5.26,6.82-.94,2.93-3.62,4.69-1.42,7.9-1.99,1.45-.26,2.49-1.82,5.06-1.89.76-.02,13.42,4.62,14.03,5,1.49.94,1.23,4.75,5.81,6.31,7.5,2.57,10.61-1.38,17.44-1.24,1.2-.92-5.26-15.27-1.3-19.57.4-.44,10.79-5.04,11.59-5.19,3.24-.62,10.39-.47,13.85-.13,1.24.12,10.82,2.16,11.32,2.42,3.03,1.55-.13,5.87,7.34,6.78,3.25.4,6.8-.99,9.67-.15,1.61.47,1.52,2.66,2.73,2.91,4.64.97,14.71-4.52,21.16-.15,3.17,2.14,1.59,6.46,2.22,9.09.37,1.54,2.55,3.12,2.72,4.65.25,2.29-4.03,5.99-4.45,8.92-.71,4.96.7,7.77,6.38,5.32l2.46,2.07c3.97-4.9,15.87-5.27,21.88-3.5,1.82.54,3.54,2.57,5.1,2.32,1.74-.27,3.09-2.74,6.72-.81,1.88-5.87-5.97-7.11-5.97-12.48,0-4.12,3.8-4.99,4.55-7.2.92-2.7-.74-7.07,2.01-9.29,4.92-3.98,14.18-.38,18.83-.99,2.42-.32,3.89-2.34,6.24-2.8s12.19-.18,13.37-1.22c.29-.25-.83-2.11-.58-3.07,1.44-5.51,23.86-7.05,29.29-5.69,1.65.41,6.37,3.8,9.19,4.23,5.18,4.13.27,14.34-.08,19.54,6.69.23,11.92,3.16,18.89.48,3.04-1.17,3.05-4.45,4.8-5.94,2.06-1.75,10.55-5.48,13.6-5.58.94-.03,9.6.44,10.07.6,3.01.99.94,3.37,7.54.38,1.83,4.09,6.85,2.45,9.56,6.06h1.73s1.71-2.7,1.71-2.7c5.01.31,17.46,1.21,21.26,3.59,1.46.91.54,2.81.71,4.12l4.72-.99-1.04,2.53c1.58.84,5.56,9.36,5.76,11.04.46,3.89-3.81,7.82-2.18,11.73.59,1.41,3.26,1.84,4.4,3.3,4.25,5.4,9.57,20.93,10.29,27.3.41,3.63-2.4,5.54-2.95,8.59-.87,4.77,1.18,9.82.63,14.77-.37,3.31-2.3,9.76-3.86,12.73-6.14,2.53-12.84-.06-18.72-.16-9.9-.17-22.9,9.31-30.23,14.5-1.46,1.03-3.96,1.41-5.31,2.5-4.1,3.33.63,15.39.65,20.04,5.28.89,7.9-4.57,11.75-5.56s9.15,1.06,9.56-3.43c5.83,2.72,11.93.78,19.17,2.25,4.77.97,6.16,4.26,12.41,1.98,5.38-1.96,9.67-12.13,9.81-16.77.28-9.6-10.91-28.69,2.65-34.64,18.16-7.97,34.42-3.49,52.01-6.01,8.29-1.19,26.82-11.93,32.87-3.33s-8.76,11.25-13.89,15.86c-2.85,2.56-3.83,6.16-8.72,9.12-6.77,4.1-17.5,3.24-7.48,10.52,1.29,7.02-9.99,10.29-12.43,13.62-2.63,3.6-.99,6.94-8.48,8.96-.66,3.62,12.16,8.09,3.07,17.43-9.85,10.13-19.73,1.08-31.37,1.97l.14,4.88c7.39.27,6.91,2.94,9.96,6.04,2.51,2.55,6.4,3.59,6.31,8.58s-14.65,7.28-19.56,7.41c-5.74.15-13.47-4.23-11.52,4.09-.98,1.2-4.28,1.11-5.79,1.92-2.42,1.31-4.58,4.32-5.92,5.68-1.59,1.62-6.91,2.77.08,4.08,4.95.92,13.89.92,17.78,1.89,1.55.39,10.16,4.86,10.97,5.85.6.73,1.14,5.86,1.08,6.96-.07,1.27-1.92,2.38-1.93,3.07s2.15,1.99,1.93,4.86c-.13,1.75-4.92,12.32-6.2,13.38-1.01.83-3.17.66-4.15,1.47-1.19.99-.9,3.36-3.35,4.67-1.98,1.06-5.88.88-6.25,1.21-.73.64.76,4.63-3.33,5.67-6.21,1.58-13.8-1.73-20.78-.56-3.82.64-17.49,4.23-19.77,6.31-1.23,1.12-.27,4.46-4.14,4.45-1.35,0-6.88-3.42-9.21-4.23-2.04-.71-4.12-.51-5.87-1.03-2.24-.67-3.18-3.29-5.96-2.6-3.81.25-4.7,5.08-7.98,6.31s-9.02.96-12.96,2.04c-5.63,1.54-12.01,5.29-17.75,7.02l-1.07,1.08c-.2.86,1.08,1.61,1.08,1.89v14.49ZM383.08,29.35c-7.93.28-6.57,8.75-9.06,13.55-4.24,8.15-17.71,16.71-26.33,21.71-1.48.86-5.31,1.26-5.66,1.71-1.62,2.09,1.23,7.89.81,10.15-.78,4.22-13.22,13.61-10.42,20.68,4.67-2.46,20.51-1.96,23.35-4.24.42-.33,3.4-5.77,3.4-6.24.02-1.9-3.52-3.84-2.88-6.74,1.79-8.21,15.33-4.1,9.58,3.85l.23,10.36c5.38-1.49,3.47-4.64,4.94-7.79,2.82-6.02,4.05-11.38,13.74-9.18,1.68.38,1.29,3.77,4.37,3.01-1.28-3.14,2.11-6.08,2.22-8.43.15-3.17-2.16-8.72-2.21-12.04-.07-4.5,5.34-24.16,2.39-26-3.65-.88-7.44-.64-8.47-4.35ZM218.62,33.47c-.66-.59-2.72-1.22-3.67-1.05l-10.28,5.47,5.97,48.28c2.45-1.44,1.64-4.84,5.57-5.8,11.07-2.68,11.55,9.51,14.67,15.66l5.75.12c-2.81-4.35-8.25-20.87,2.72-17.78,8.67,2.45-1.92,11.13,4.4,16.27,3.41,2.78,19.37,1.62,24.81,3.5l-5.39-13.96c-1.9-.98-5.76-4.17-6.25-5.76-.88-2.87,2.81-5.99-.27-9.68-1.21-1.45-17.74-8.34-21.83-11.52-1.59-1.24-10.52-10.12-11.27-11.46-1.56-2.79-2.79-10.39-4.93-12.31ZM319.13,72.45c-8.66,1.72-23.07,3.85-32.3,2.78-4.23-.49-14.68-5.05-18.07-.39-6.49,8.91,3.36,16.2,9.27,21.81,2.32,2.2,2.52,6.09,7.98,7.27,6.66,1.45,5.63-2.28,8.54-5.3,1.16-1.21,3.99-1.57,4.6-3.14.99-2.5-1.11-10.45-1.44-13.53-.19-1.79-.99-2.51,2.17-2.78l1.99,16.31,9.85,9.59c1.71-1.99,6.34-2.67,7.77-4.35,1.17-1.38.83-3.28,1.76-4.5.87-1.15,4.59-2.69,6.43-4.55,8.05-8.14,9.13-22.72-8.56-19.22ZM405.71,75.19c-2.14-1.38-12.86,10.04-11.81,10.98l9.49,2.53c1.86-4.23,4.31-9.16,2.33-13.51ZM205.9,88.19c-4.82-1.36-6.91-7.01-11.81-9.01-1.68,2.25,1.05,14.9,2.94,14.96l8.87-5.95ZM326.5,226.04c8.82-2.19,10.58,2.3,15.96,5.99,2.16,1.48,6.39,2.47,7.77,4.42s.8,5.34,2.19,6.14c.47.27,9.88,1.36,11.2,1.33,9.48-.21,7.3-3.89,10.81-7.86,2.42-2.74,6.41-4.77,8.63-7.69,6.12-8.05,8.14-27.02,8.51-36.76.27-6.93,1.57-20.89-10.14-12.57-4.36,3.09-5.34,9.04-8,10.72-.67.43-11.49,4.03-12.27,4.05-3.23.07-16.23-5.57-16.54-8.22-.21-1.77,4.73-6.2-.38-5.51-.45,10.43-16.16,12.96-26.02,13.98l2.36-3.98c-12.05,1.7-10.51-12.4-21.88-6.01-2.22,1.25-4.43,4.63-6.54,5.46-2.45.96-6.25-.03-7.04,2.52l2.35,3.01-19.23-4.22-7.96-5.75c2.11,5.46-1.22,4.25-4,6.11-1.3.86-1.6,2.24-2.84,2.85-6.25,3.04-14.54,1.78-20.29-1.53-5.36-3.09-6.72-11.42-14.25-13.93-4.21-1.4-5.97,8.42-5.96,10.94.07,9.52,7.44,39.15,15.35,45.78,1.14.96,2.95.81,4.11,1.74,2.87,2.31,2.62,6.64,6.89,8.2,5.44,2,11.91-.2,17.54-.73.24-7.67,5.24-8.24,11.2-12.45,4.61-3.26,3.97-6.59,13.52-5.04.96,3.84-3.66,4.03-5.93,6.47-2.85,3.05-5.17,7.76-8.02,11.02.18,2.01,16.08,8.77,19.84,6.49,5.85,16.35,7.2-5.55,10.4-9.72,2.21-2.89,5.75-2.66,6.61-4.54l-.43-8.22c7.14-2.23,3.89,6.07,5.02,9.74.51,1.65,3.05,3.56,3.88,5.72,1.77,4.62-.49,11.65,7.65,12.01.34-9.91,14.6-5.23,20.01-12.67.45-1.46-5.47-8.24-7.01-9.78-2.79-2.79-7.67-3.73-7.07-7.5Z"/>
</svg>